<?xml version="1.0" encoding="UTF-8" standalone="no"?>
<!-- Created with Inkscape (http://www.inkscape.org/) -->

<svg
   xmlns:dc="http://purl.org/dc/elements/1.1/"
   xmlns:cc="http://creativecommons.org/ns#"
   xmlns:rdf="http://www.w3.org/1999/02/22-rdf-syntax-ns#"
   xmlns:svg="http://www.w3.org/2000/svg"
   xmlns="http://www.w3.org/2000/svg"
   xmlns:sodipodi="http://sodipodi.sourceforge.net/DTD/sodipodi-0.dtd"
   xmlns:inkscape="http://www.inkscape.org/namespaces/inkscape"
   width="16.158157"
   height="16.158159"
   id="svg2"
   version="1.1"
   inkscape:version="0.48.2 r9819"
   sodipodi:docname="add-tab-button.svg">
  <defs
     id="defs4">
    <inkscape:perspective
       sodipodi:type="inkscape:persp3d"
       inkscape:vp_x="0 : 526.18109 : 1"
       inkscape:vp_y="0 : 1000 : 0"
       inkscape:vp_z="744.09448 : 526.18109 : 1"
       inkscape:persp3d-origin="372.04724 : 350.78739 : 1"
       id="perspective10" />
    <filter
       inkscape:collect="always"
       id="filter3632"
       color-interpolation-filters="sRGB">
      <feGaussianBlur
         inkscape:collect="always"
         stdDeviation="0.42"
         id="feGaussianBlur3634" />
    </filter>
  </defs>
  <sodipodi:namedview
     id="base"
     pagecolor="#ffffff"
     bordercolor="#666666"
     borderopacity="1.0"
     inkscape:pageopacity="0.0"
     inkscape:pageshadow="2"
     inkscape:zoom="22.627417"
     inkscape:cx="6.4428152"
     inkscape:cy="8.2396458"
     inkscape:document-units="px"
     inkscape:current-layer="layer1"
     showgrid="true"
     inkscape:snap-bbox="true"
     inkscape:window-width="1095"
     inkscape:window-height="670"
     inkscape:window-x="95"
     inkscape:window-y="48"
     inkscape:window-maximized="0"
     fit-margin-top="0"
     fit-margin-left="0"
     fit-margin-right="0"
     fit-margin-bottom="0">
    <inkscape:grid
       type="xygrid"
       id="grid2816"
       empspacing="5"
       visible="true"
       enabled="true"
       snapvisiblegridlinesonly="true" />
  </sodipodi:namedview>
  <metadata
     id="metadata7">
    <rdf:RDF>
      <cc:Work
         rdf:about="">
        <dc:format>image/svg+xml</dc:format>
        <dc:type
           rdf:resource="http://purl.org/dc/dcmitype/StillImage" />
        <dc:title />
      </cc:Work>
    </rdf:RDF>
  </metadata>
  <g
     inkscape:label="Layer 1"
     inkscape:groupmode="layer"
     id="layer1"
     transform="translate(-289.92091,-532.28311)">
    <path
       sodipodi:type="star"
       style="fill:none;stroke:#000000;stroke-width:1.07784426px;stroke-linecap:butt;stroke-linejoin:miter;stroke-opacity:1"
       id="path2818"
       sodipodi:sides="4"
       sodipodi:cx="298"
       sodipodi:cy="542.36218"
       sodipodi:r1="6"
       sodipodi:r2="4.2897873"
       sodipodi:arg1="0"
       sodipodi:arg2="0.78539891"
       inkscape:flatsided="false"
       inkscape:rounded="0.54"
       inkscape:randomized="0"
       d="m 304,542.36218 c 0,2.29117 -1.34656,1.41324 -2.96666,3.03334 -1.6201,1.6201 -0.74217,2.96666 -3.03334,2.96666 -2.29117,0 -1.41324,-1.34656 -3.03334,-2.96666 -1.6201,-1.6201 -2.96666,-0.74217 -2.96666,-3.03334 0,-2.29117 1.34656,-1.41324 2.96666,-3.03334 1.6201,-1.6201 0.74217,-2.96666 3.03334,-2.96666 2.29117,0 1.41324,1.34657 3.03334,2.96667 1.6201,1.6201 2.96666,0.74217 2.96666,3.03333 z"
       transform="matrix(1.0705131,0,0,1.0705132,-21.01291,-40.243687)" />
    <path
       transform="matrix(1.0705131,0,0,1.0705132,-21.01291,-40.243687)"
       d="m 304,542.36218 c 0,2.29117 -1.34656,1.41324 -2.96666,3.03334 -1.6201,1.6201 -0.74217,2.96666 -3.03334,2.96666 -2.29117,0 -1.41324,-1.34656 -3.03334,-2.96666 -1.6201,-1.6201 -2.96666,-0.74217 -2.96666,-3.03334 0,-2.29117 1.34656,-1.41324 2.96666,-3.03334 1.6201,-1.6201 0.74217,-2.96666 3.03334,-2.96666 2.29117,0 1.41324,1.34657 3.03334,2.96667 1.6201,1.6201 2.96666,0.74217 2.96666,3.03333 z"
       inkscape:randomized="0"
       inkscape:rounded="0.54"
       inkscape:flatsided="false"
       sodipodi:arg2="0.78539891"
       sodipodi:arg1="0"
       sodipodi:r2="4.2897873"
       sodipodi:r1="6"
       sodipodi:cy="542.36218"
       sodipodi:cx="298"
       sodipodi:sides="4"
       id="path3630"
       style="fill:none;stroke:#000000;stroke-width:1.07784426px;stroke-linecap:butt;stroke-linejoin:miter;stroke-opacity:1;filter:url(#filter3632)"
       sodipodi:type="star" />
    <rect
       style="fill:none;stroke:none"
       id="add-tab-button"
       width="16"
       height="16"
       x="290"
       y="532.36218"
       inkscape:label="#rect3636" />
  </g>
</svg>
