<?xml version="1.0" encoding="UTF-8" standalone="no"?>
<!-- Created with Inkscape (http://www.inkscape.org/) -->

<svg
   xmlns:dc="http://purl.org/dc/elements/1.1/"
   xmlns:cc="http://creativecommons.org/ns#"
   xmlns:rdf="http://www.w3.org/1999/02/22-rdf-syntax-ns#"
   xmlns:svg="http://www.w3.org/2000/svg"
   xmlns="http://www.w3.org/2000/svg"
   xmlns:sodipodi="http://sodipodi.sourceforge.net/DTD/sodipodi-0.dtd"
   xmlns:inkscape="http://www.inkscape.org/namespaces/inkscape"
   width="16"
   height="16"
   id="svg8553"
   version="1.1"
   inkscape:version="0.48.2 r9819"
   sodipodi:docname="history-icon.svg"
   inkscape:export-filename="/Users/joce/dev/liquid/qml/content/pics/history-icon.png"
   inkscape:export-xdpi="90"
   inkscape:export-ydpi="90">
  <defs
     id="defs8555" />
  <sodipodi:namedview
     id="base"
     pagecolor="#ffffff"
     bordercolor="#666666"
     borderopacity="1.0"
     inkscape:pageopacity="0.0"
     inkscape:pageshadow="2"
     inkscape:zoom="15.839192"
     inkscape:cx="-2.6751732"
     inkscape:cy="7.189265"
     inkscape:document-units="px"
     inkscape:current-layer="layer1"
     showgrid="true"
     inkscape:snap-object-midpoints="true"
     inkscape:snap-nodes="false"
     inkscape:window-width="1070"
     inkscape:window-height="711"
     inkscape:window-x="110"
     inkscape:window-y="2"
     inkscape:window-maximized="0">
    <inkscape:grid
       type="xygrid"
       id="grid8561"
       empspacing="5"
       visible="true"
       enabled="true"
       snapvisiblegridlinesonly="true" />
  </sodipodi:namedview>
  <metadata
     id="metadata8558">
    <rdf:RDF>
      <cc:Work
         rdf:about="">
        <dc:format>image/svg+xml</dc:format>
        <dc:type
           rdf:resource="http://purl.org/dc/dcmitype/StillImage" />
        <dc:title></dc:title>
      </cc:Work>
    </rdf:RDF>
  </metadata>
  <g
     inkscape:label="Layer 1"
     inkscape:groupmode="layer"
     id="layer1"
     transform="translate(0,-1036.3622)">
    <path
       sodipodi:type="arc"
       style="fill:none;stroke:#a6a6a6;stroke-width:1;stroke-linecap:round;stroke-linejoin:miter;stroke-miterlimit:4;stroke-opacity:1;stroke-dasharray:none"
       id="path8566"
       sodipodi:cx="8"
       sodipodi:cy="8"
       sodipodi:rx="6"
       sodipodi:ry="6"
       d="m 14,8 c 0,3.313708 -2.686292,6 -6,6 C 4.6862915,14 2,11.313708 2,8 2,4.6862915 4.6862915,2 8,2 c 3.313708,0 6,2.6862915 6,6 z"
       transform="translate(0,1036.3622)" />
    <path
       style="fill:none;stroke:#a6a6a6;stroke-width:1px;stroke-linecap:round;stroke-linejoin:miter;stroke-opacity:1"
       d="m 8,1044.3622 4,0"
       id="path9078"
       inkscape:connector-curvature="0" />
    <path
       style="fill:none;stroke:#a6a6a6;stroke-width:1px;stroke-linecap:round;stroke-linejoin:miter;stroke-opacity:1"
       d="m 8,1044.3622 -2,2"
       id="path9080"
       inkscape:connector-curvature="0" />
    <path
       style="fill:none;stroke:#000000;stroke-width:1px;stroke-linecap:butt;stroke-linejoin:miter;stroke-opacity:1"
       d="m -9,5 0,0"
       id="path9082"
       inkscape:connector-curvature="0"
       transform="translate(0,1036.3622)" />
    <path
       sodipodi:type="arc"
       style="fill:#d0d0d0;fill-opacity:1;stroke:none"
       id="path9086"
       sodipodi:cx="-10.5"
       sodipodi:cy="4.5"
       sodipodi:rx="0.5"
       sodipodi:ry="0.5"
       d="M -10,4.5 C -10,4.7761424 -10.223858,5 -10.5,5 -10.776142,5 -11,4.7761424 -11,4.5 -11,4.2238576 -10.776142,4 -10.5,4 c 0.276142,0 0.5,0.2238576 0.5,0.5 z"
       transform="translate(14.5,1039.8622)" />
    <path
       transform="translate(18.5,1035.8622)"
       d="M -10,4.5 C -10,4.7761424 -10.223858,5 -10.5,5 -10.776142,5 -11,4.7761424 -11,4.5 -11,4.2238576 -10.776142,4 -10.5,4 c 0.276142,0 0.5,0.2238576 0.5,0.5 z"
       sodipodi:ry="0.5"
       sodipodi:rx="0.5"
       sodipodi:cy="4.5"
       sodipodi:cx="-10.5"
       id="path9099"
       style="fill:#d0d0d0;fill-opacity:1;stroke:none"
       sodipodi:type="arc" />
    <path
       sodipodi:type="arc"
       style="fill:#d0d0d0;fill-opacity:1;stroke:none"
       id="path9101"
       sodipodi:cx="-10.5"
       sodipodi:cy="4.5"
       sodipodi:rx="0.5"
       sodipodi:ry="0.5"
       d="M -10,4.5 C -10,4.7761424 -10.223858,5 -10.5,5 -10.776142,5 -11,4.7761424 -11,4.5 -11,4.2238576 -10.776142,4 -10.5,4 c 0.276142,0 0.5,0.2238576 0.5,0.5 z"
       transform="translate(18.5,1043.8622)" />
  </g>
</svg>
