<?xml version="1.0" encoding="UTF-8" standalone="no"?>
<!-- Created with Inkscape (http://www.inkscape.org/) -->

<svg
   xmlns:dc="http://purl.org/dc/elements/1.1/"
   xmlns:cc="http://creativecommons.org/ns#"
   xmlns:rdf="http://www.w3.org/1999/02/22-rdf-syntax-ns#"
   xmlns:svg="http://www.w3.org/2000/svg"
   xmlns="http://www.w3.org/2000/svg"
   xmlns:sodipodi="http://sodipodi.sourceforge.net/DTD/sodipodi-0.dtd"
   xmlns:inkscape="http://www.inkscape.org/namespaces/inkscape"
   width="16"
   height="16"
   id="svg9124"
   version="1.1"
   inkscape:version="0.48.2 r9819"
   inkscape:export-filename="/Users/joce/dev/liquid/qml/content/pics/www-icon2.png"
   inkscape:export-xdpi="914.96997"
   inkscape:export-ydpi="914.96997"
   sodipodi:docname="www-icon.svg">
  <defs
     id="defs9126" />
  <sodipodi:namedview
     id="base"
     pagecolor="#ffffff"
     bordercolor="#666666"
     borderopacity="1.0"
     inkscape:pageopacity="0.0"
     inkscape:pageshadow="2"
     inkscape:zoom="22.85148"
     inkscape:cx="5.5704747"
     inkscape:cy="7.9839692"
     inkscape:current-layer="layer1"
     showgrid="true"
     inkscape:grid-bbox="true"
     inkscape:document-units="px"
     inkscape:window-width="1280"
     inkscape:window-height="752"
     inkscape:window-x="0"
     inkscape:window-y="0"
     inkscape:window-maximized="1"
     inkscape:snap-nodes="false">
    <inkscape:grid
       type="xygrid"
       id="grid9182"
       empspacing="5"
       visible="true"
       enabled="true"
       snapvisiblegridlinesonly="true" />
  </sodipodi:namedview>
  <metadata
     id="metadata9129">
    <rdf:RDF>
      <cc:Work
         rdf:about="">
        <dc:format>image/svg+xml</dc:format>
        <dc:type
           rdf:resource="http://purl.org/dc/dcmitype/StillImage" />
        <dc:title></dc:title>
      </cc:Work>
    </rdf:RDF>
  </metadata>
  <g
     id="layer1"
     inkscape:label="Layer 1"
     inkscape:groupmode="layer">
    <path
       style="fill:#a6a6a6;fill-opacity:1"
       d="M 9.022191,2.783638 C 9.1909337,2.5841219 9.4631672,2.11857 9.9406476,2.3462681 c 0.3668334,0.1905663 0.5879874,0.1275804 0.8866874,0.2882068 0.346844,0.3619068 0.47845,0.2452251 0.851873,0.6622945 0.28554,0.4895954 0.192628,1.1232844 0.380757,1.3647464 0.396837,0.3754573 0.380752,0.818284 -0.261543,0.6929664 C 11.547151,5.1640034 11.239033,5.0421214 11.072243,4.9501794 10.736499,4.8221981 11.07221,4.7641198 10.707721,4.6758019 10.604516,4.5856382 10.507235,4.2551611 10.290005,4.1608144 10.02505,4.1052014 9.8283229,3.6505963 9.6193175,3.8618929 M 11.225904,14.688192 C 11.177296,14.408508 10.530352,14.824834 10.097191,14.487179 9.5191781,14.21461 8.8503521,14.038883 8.2197637,13.930934 7.6430555,13.797071 6.8464671,13.650257 6.5900116,13.069729 6.3085132,12.740841 6.0575444,12.060167 5.7243773,11.9705 5.9991232,12.208038 6.2984259,13.082714 5.7124489,12.448058 5.5269776,12.107902 5.2524907,11.85938 5.206081,11.499395 5.1826701,10.897023 4.7000951,10.700901 4.5814514,10.158348 4.4111399,9.655431 4.5164962,8.9845808 4.7017711,8.6407622 4.9620982,8.1129149 4.6855895,7.6093414 4.7772811,7.0630154 4.7510026,6.6935462 4.7578463,6.2658969 4.6007055,5.7660644 4.6485634,5.5188623 4.3222955,5.2714989 4.1491284,5.1877384 4.0489303,5.4656279 3.7609548,5.3608531 3.4550758,5.2104275 2.9967515,5.1480688 3.0542244,4.5482326 3.4918127,4.9069638 4.0279907,4.863694 3.5472856,4.148191 3.8653916,4.0041981 3.9974372,4.6519577 3.8393421,3.8011998 4.3524332,3.949153 4.2730916,3.5229649 4.8034186,3.5708507 4.7217083,3.8512574 4.5704569,3.2526289 5.4651442,3.3460968 5.595762,3.7891529 5.7548849,4.3726203 6.0249812,4.5133569 6.5329209,4.5403595 6.7462134,5.0246531 7.3684985,4.580846 6.7210799,4.4337394 6.7406798,3.8060787 7.3252982,4.1914297 7.6972171,4.3050779 7.8977123,4.2995114 7.6792065,4.0376552 7.9221777,4.3328059 7.7432671,4.7432022 8.1896932,5.0913534 7.7163985,5.2488215 7.9211917,5.4009459 8.4916206,5.1840084 8.2386335,5.1275443 7.9110983,5.2656972 8.2275607,4.7438091 7.9190342,4.6602115 7.8928859,4.109983 8.0075799,4.2772994 8.3094052,4.2909257 8.0736881,3.7898643 7.5461415,4.4503652 7.3750824,4.0659709 7.0488149,3.861974 7.1487135,3.5099954 7.484046,3.5394082 7.7469711,3.4831702 8.1606713,3.2917174 8.3380612,3.3454746 8.5154511,3.3992317 9.0182555,4.7089847 9.0951016,5.0249219 9.1719479,5.3408566 9.3613041,5.3222788 9.2302119,5.3765176 8.7312661,5.6951103 9.9016081,6.0142435 9.1970692,5.9903073 8.9452969,6.0597255 8.7442373,5.8962084 8.6120648,6.2143973 8.1277547,6.4839189 8.4444634,7.2189664 8.9166697,7.2163015 9.2643531,7.4836489 9.7641237,7.3901905 9.8146471,7.9514198 10.357805,8.2602084 9.7586068,7.2906559 10.040296,7.0580799 9.9009115,6.7665261 9.4065018,5.9610182 10.058884,5.9627753 c 0.410953,0.060573 0.812779,0.9270564 0.85689,0.122534 0.179572,0.1517007 0.542801,0.063466 0.321972,0.2270511 0.262867,-0.032964 0.354786,0.6471752 0.652377,0.2699914 0.283664,-0.078961 0.298133,0.3390624 0.52624,0.4056373 -0.06619,0.367891 0.201325,0.2752174 0.417521,0.3901694 0.58875,0.4724532 -0.678432,0.6985584 -0.570566,0.1585771 -0.03898,-0.8466444 -0.37121,0.9009908 -0.552916,0.081015 -0.203565,0.1262072 -0.460002,0.6873476 0.03801,0.2871443 -0.01266,0.7403636 0.431536,0.062523 0.652261,0.2128705 0.170964,0.2460447 -0.110499,0.47272 -0.269827,0.7686747 -0.493082,-0.00854 -0.496866,-0.033789 -0.567908,0.4161794 0.38399,0.071125 -0.09638,0.3315298 -0.206518,0.4517043 -0.281104,0.171952 -0.173931,0.7705052 -0.321114,1.2027582 -0.178969,0.121866 -0.408327,0.341063 -0.431641,0.492927 -0.01945,0.207182 -0.109373,0.499148 0.182236,0.669898 0.145267,-0.293305 0.597114,0.198581 0.08501,0.04822 -0.306527,0.0016 0.02545,0.565874 -0.418614,0.285485 -0.224966,-0.166237 -0.706209,-0.357501 -0.237615,-0.240202 -0.19645,-0.538349 -0.8648757,-0.267183 -1.1791959,-0.06945 -0.1767739,0.01048 -0.3352137,-0.0396 -0.3650497,0.07703 -0.080828,-0.104729 -0.3296792,0.04153 -0.4779957,-0.0463 -0.133411,0.378733 -0.326891,0.955399 -0.031843,1.202502 0.2719603,0.269283 0.8896056,0.13867 0.7577475,-0.153504 0.3629186,0.0063 -0.063107,-0.163766 0.4445132,-0.215319 0.2120621,-0.145285 -0.023668,0.143728 0.3795828,0.09737 -0.3927173,0.6084 -0.065708,0.770512 0.5237328,0.541747 0.151164,-0.02939 0.09189,0.350939 0.260569,0.28414 -0.511274,0.665382 0.801266,0.24383 0.913979,0.125767 0.112718,-0.118075 -0.166208,0.910485 -0.214814,0.630801 z m -0.726412,-0.900566 c -0.06587,-0.131739 0.276048,0.141512 0,0 z m 0.04367,-0.142123 c 0.05631,-0.225017 0.08863,0.184286 0,0 z m 0.520085,-0.372401 c 0.19041,-0.265851 0.690368,0.008 0.11803,0.04129 -0.0032,0.09888 -0.118789,-0.08488 -0.11803,-0.04129 z m 0.690999,-0.27494 c 0.07879,-0.259069 -0.771433,0.188292 -1.065822,-0.136459 -0.268855,0.139763 -1.0540041,0.231804 -0.394031,-0.127876 0.447495,-0.220499 1.076823,0.159443 0.617931,-0.377955 0.434828,-0.208472 0.122597,0.702971 0.838006,0.439882 0.35966,-0.241579 1.381205,-0.190208 0.503654,0.100813 -0.01888,0.09061 -0.853077,0.308352 -0.499738,0.101595 z m -2.5276701,0.03363 c 0.2620125,-0.303916 0.057595,0.04094 0,0 z m 0.3722488,-0.06952 c 0.2565179,-0.03859 -0.015201,0.09967 0,0 z m 3.1336183,-0.298726 c 0.237324,-0.539736 0.337697,0.132495 0,0 z m -1.443101,-0.158987 c 0.03633,-0.252282 0.05271,0.207329 0,0 z m 0.34112,0.01872 c 0.03538,-0.150037 0.0161,0.17109 0,0 z m -1.495981,-0.01944 c 0.0013,-0.405729 0.265072,0.249099 0,0 z m 1.186012,-0.184464 c -0.371329,-0.255173 0.399294,0.08617 0,0 z M 9.9406688,12.027081 c -0.1220353,-0.213331 0.3095742,0.126969 0,0 z m 1.7905762,-2.82988 c -0.222352,-0.299394 0.434375,0.2331987 0,0 z m 0.205944,-0.023105 c 0.08794,-0.1430006 0.06981,0.181828 0,0 z M 12.36925,8.5447541 c -0.05811,-0.2405904 0.298027,0.040494 0,0 z m 0.245592,-0.6446474 c 0.107126,-0.1847531 0.182725,0.3077833 0,0 z M 4.5604395,7.1932466 c -0.1722237,-0.4818452 0.4697539,-0.6035011 0,0 z m 7.8586975,-0.349924 c -0.03611,-0.2725567 0.146264,0.1549691 0,0 z M 9.515947,6.2568568 c 0.00588,-0.32821 0.1796775,0.086766 0,0 z m 1.910579,0.024404 c 0.229732,-0.025215 -0.08194,0.067853 0,0 z M 9.2265725,6.1582523 c 0.1942133,-0.5072448 0.1885393,0.3369244 0,0 z M 7.8712641,5.2404896 c 0.151993,-0.2650282 0.093818,0.023137 0,0 z M 2.9534335,4.8058123 c 0.098957,-0.1381164 0.098969,0.1381146 0,0 z m -0.089547,-0.06337 c -0.048015,-0.2097204 0.2710084,0.037813 0,0 z m 9.0733025,-0.437214 c 0.10621,-0.1437633 0.03527,0.1327535 0,0 z M 6.9250398,3.8318516 c 0.1013909,-0.1647796 -0.03419,0.1674885 0,0 z M 3.6364469,3.7853678 c 0.01276,-0.2116549 0.1149459,0.199559 0,0 z m 8.8861721,0.022082 c -0.06946,-0.1664254 0.257521,0.052216 0,0 z M 12.381926,3.7757311 C 12.027345,3.6309015 11.768177,3.5839234 12.152205,3.3164487 c -0.123388,-0.4432829 0.86535,0.033931 0.478338,0.2893647 -0.07416,0.071811 -0.173517,0.099723 -0.248617,0.1699177 z M 3.6117263,3.6301401 c 0.1140904,-0.3339473 0.583507,-0.2641845 0,0 z M 11.808112,3.4708659 c -0.120635,-0.2193921 0.165684,0.079584 0,0 z M 7.7938193,3.4195282 c 0.1062068,-0.143768 0.035249,0.1327521 0,0 z m 4.0322617,-0.071882 c -0.275095,-0.2231184 0.399533,0.1486477 0,0 z m -7.9626545,-0.00547 c -0.1796192,-0.1259955 0.2876562,0.1038645 0,0 z M 4.812142,3.2628852 c 0.064196,-0.086006 0.096764,0.1319638 0,0 z m 7.144401,-0.1518319 c -0.0017,-0.1294967 0.118874,0.1282298 0,0 z M 8.8543695,5.2603215 C 8.9736988,4.9906097 8.1864824,4.1231751 8.4539051,4.8557766 8.5947779,5.047718 8.8472943,5.1424159 8.8543695,5.2603215 z"
       inkscape:connector-curvature="0"
       sodipodi:nodetypes="cccccccccczccccccccccccccccccccccccccczzcccccccccccccccccccccccccccccccccczzccccccccccccccccccccccccccccccccccccccccccccccccccccccccccccccccccccccccccccccccccc"
       id="path9180" />
    <path
       sodipodi:type="arc"
       style="fill:none;stroke:#a6a6a6;stroke-width:1.71428561;stroke-miterlimit:4;stroke-opacity:1;stroke-dasharray:none"
       id="path10459"
       sodipodi:cx="8"
       sodipodi:cy="8"
       sodipodi:rx="8"
       sodipodi:ry="8"
       d="M 16,8 A 8,8 0 1 1 0,8 8,8 0 1 1 16,8 z"
       transform="matrix(0.87500002,0,0,0.87500002,1.0000001,1.0000001)" />
  </g>
</svg>
